<?xml version="1.0" encoding="iso-8859-1"?>
<!-- Generator: Adobe Illustrator 19.0.0, SVG Export Plug-In . SVG Version: 6.00 Build 0)  -->
<svg version="1.1" id="Layer_1" xmlns="http://www.w3.org/2000/svg" xmlns:xlink="http://www.w3.org/1999/xlink" x="0px" y="0px"
	 viewBox="0 0 512 512" style="enable-background:new 0 0 512 512;" xml:space="preserve">
<path style="fill:#AFF2D8;" d="M137.432,268.935h53.895v136.623c0,9.671-5.094,18.152-12.745,22.905
	c-4.124,2.562-8.99,4.042-14.202,4.042c-14.882,0-26.947-12.065-26.947-26.947V268.935z M320.674,268.935v136.623
	c0,14.883,12.065,26.947,26.947,26.947s26.947-12.065,26.947-26.947V268.935H320.674z M229.053,476.968
	c0,14.882,12.065,26.947,26.947,26.947s26.947-12.065,26.947-26.947V268.935h-53.895V476.968z"/>
<path style="fill:#87CEB7;" d="M137.432,266.246h53.895v2.688v73.297v63.326c0,9.671-5.094,18.152-12.745,22.905
	c-4.124,2.562-8.99,4.042-14.202,4.042c-3.834,0-7.477-0.806-10.779-2.249c1.188-0.518,2.333-1.115,3.423-1.793
	c7.651-4.755,12.745-13.235,12.745-22.905v-41.77c0-11.906-9.651-21.558-21.558-21.558h-10.779V266.246z M229.053,342.232h10.779
	c11.906,0,21.558,9.651,21.558,21.558v113.179c0,11.048-6.653,20.539-16.168,24.699c3.452,1.509,7.279,2.321,11.305,2.244
	c14.78-0.284,26.421-12.782,26.421-27.565V342.232v-73.297v-2.688h-53.895V342.232z M320.674,266.246v75.985h10.779
	c11.906,0,21.558,9.651,21.558,21.558v41.768c0,11.048-6.653,20.539-16.168,24.699c3.452,1.509,7.279,2.321,11.305,2.244
	c14.78-0.284,26.421-12.782,26.421-27.565v-62.704v-73.297v-2.688H320.674z"/>
<path style="fill:#AFF2D8;" d="M471.579,191.326L471.579,191.326c0,59.531-48.258,107.789-107.789,107.789H148.211
	c-59.53,0-107.789-48.258-107.789-107.789l0,0c0-59.53,48.258-107.789,107.789-107.789h4.938
	C166.884,39.807,207.736,8.084,256,8.084l0,0c48.264,0,89.116,31.722,102.852,75.453h4.938
	C423.32,83.537,471.579,131.796,471.579,191.326z"/>
<path style="fill:#87CEB7;" d="M471.576,190.51c0.444,59.905-47.984,108.605-107.786,108.605h-37.726
	c53.823,0,97.407-43.832,97.007-97.747c-0.396-53.489-44.734-96.274-98.225-96.274h-53.046c-6.467,0-11.605-5.696-10.668-12.345
	c0.756-5.369,5.616-9.213,11.038-9.213h13.427c7.777,0,13.072-8.02,9.875-15.11c-12.666-28.092-37.625-49.444-68.035-57.182
	c8.101-2.062,16.588-3.16,25.331-3.16h6.467c47.224,0,86.954,31.978,98.786,75.453h4.416
	C421.872,83.537,471.136,131.076,471.576,190.51z"/>
<path d="M264.084,503.916c0,4.466-3.62,8.084-8.084,8.084c-19.316,0-35.032-15.715-35.032-35.032V331.453
	c0-4.466,3.62-8.084,8.084-8.084c4.465,0,8.084,3.618,8.084,8.084v145.516c0,10.401,8.463,18.863,18.863,18.863
	C260.465,495.832,264.084,499.45,264.084,503.916z M282.947,323.368c-4.465,0-8.084,3.618-8.084,8.084v145.516
	c0,4.466,3.62,8.084,8.084,8.084s8.084-3.618,8.084-8.084V331.453C291.032,326.987,287.412,323.368,282.947,323.368z
	 M164.379,424.421c-10.401,0-18.863-8.463-18.863-18.863v-74.105c0-4.466-3.62-8.084-8.084-8.084c-4.465,0-8.084,3.618-8.084,8.084
	v74.105c0,19.317,15.716,35.032,35.032,35.032c4.465,0,8.084-3.618,8.084-8.084S168.844,424.421,164.379,424.421z M191.326,323.368
	c-4.465,0-8.084,3.618-8.084,8.084v74.105c0,4.466,3.62,8.084,8.084,8.084c4.465,0,8.084-3.618,8.084-8.084v-74.105
	C199.411,326.987,195.791,323.368,191.326,323.368z M347.621,424.421c-10.401,0-18.863-8.463-18.863-18.863v-74.105
	c0-4.466-3.62-8.084-8.084-8.084s-8.084,3.618-8.084,8.084v74.105c0,19.317,15.716,35.032,35.032,35.032
	c4.465,0,8.084-3.618,8.084-8.084S352.086,424.421,347.621,424.421z M374.568,323.368c-4.465,0-8.084,3.618-8.084,8.084v74.105
	c0,4.466,3.62,8.084,8.084,8.084c4.465,0,8.084-3.618,8.084-8.084v-74.105C382.653,326.987,379.033,323.368,374.568,323.368z
	 M479.631,188.558C478.236,129.139,430.067,81.311,369.97,79.67l-3.901-0.107C350.539,32.424,306.118,0,256,0
	c-63.893,0-115.874,51.981-115.874,115.874v43.116c0,4.466,3.62,8.084,8.084,8.084c4.465,0,8.084-3.618,8.084-8.084v-43.116
	c0-54.978,44.727-99.705,99.705-99.705c44.874,0,84.438,30.2,96.212,73.442c0.937,3.44,4.016,5.861,7.58,5.956l9.738,0.265
	c51.482,1.406,92.744,42.301,93.937,93.103c0.018,0.794,0.028,1.592,0.028,2.391c0,54.978-44.727,99.705-99.705,99.705H207.495
	c-4.465,0-8.084,3.618-8.084,8.084s3.62,8.084,8.084,8.084h156.295c63.893,0,115.874-51.981,115.874-115.874
	C479.663,190.401,479.652,189.48,479.631,188.558z M175.158,291.032h-26.947c-54.978,0-99.705-44.727-99.705-99.705
	c0-43.796,28.047-82.031,69.79-95.143c4.26-1.338,6.628-5.876,5.29-10.134c-1.338-4.259-5.872-6.631-10.135-5.29
	c-23.023,7.232-43.686,21.92-58.184,41.359c-15.001,20.116-22.93,44.047-22.93,69.208c0,63.892,51.98,115.874,115.874,115.874
	h26.947c4.465,0,8.084-3.618,8.084-8.084S179.623,291.032,175.158,291.032z"/>
<g>
</g>
<g>
</g>
<g>
</g>
<g>
</g>
<g>
</g>
<g>
</g>
<g>
</g>
<g>
</g>
<g>
</g>
<g>
</g>
<g>
</g>
<g>
</g>
<g>
</g>
<g>
</g>
<g>
</g>
</svg>
